<svg xmlns="http://www.w3.org/2000/svg" viewBox="0 0 1200 675" role="img" aria-labelledby="t d"><title id="t">International client call</title><desc id="d">Premium editorial illustration of a professional leading a friendly international video call.</desc><defs><linearGradient id="bg" x2="1" y2="1"><stop stop-color="#061d25"/><stop offset=".55" stop-color="#075a59"/><stop offset="1" stop-color="#08a87e"/></linearGradient><linearGradient id="panel" x2="0" y2="1"><stop stop-color="#fbfefe"/><stop offset="1" stop-color="#e9f6f4"/></linearGradient><filter id="s"><feDropShadow dx="0" dy="18" stdDeviation="22" flood-opacity=".28"/></filter></defs><rect width="1200" height="675" fill="url(#bg)"/><circle cx="1040" cy="90" r="250" fill="#4df0ba" opacity=".12"/><rect x="58" y="55" width="1084" height="535" rx="42" fill="url(#panel)" filter="url(#s)"/><rect x="105" y="105" width="620" height="415" rx="30" fill="#d9efee"/><rect x="130" y="130" width="570" height="365" rx="24" fill="#c7e6e4"/><g><circle cx="414" cy="255" r="82" fill="#b97857"/><path d="M342 243q10-98 74-98 68 0 84 101-31-39-80-41-48 1-78 38" fill="#2a2020"/><path d="M270 490q24-207 146-207t164 207" fill="#185d67"/><path d="M375 286l41 48 43-48 31 204H340z" fill="#f7fbfb"/><path d="M330 220q-39 5-42 64v56" fill="none" stroke="#173e48" stroke-width="15" stroke-linecap="round"/><path d="M500 220q39 5 42 64v56" fill="none" stroke="#173e48" stroke-width="15" stroke-linecap="round"/><rect x="276" y="300" width="36" height="72" rx="18" fill="#173e48"/><rect x="530" y="300" width="36" height="72" rx="18" fill="#173e48"/><path d="M548 362q-14 44-62 50" fill="none" stroke="#173e48" stroke-width="9" stroke-linecap="round"/><circle cx="482" cy="413" r="10" fill="#173e48"/></g><rect x="770" y="115" width="300" height="190" rx="24" fill="#fff" stroke="#b8d8d5" stroke-width="5"/><g><circle cx="870" cy="194" r="48" fill="#d79b73"/><path d="M827 186q7-56 45-56 41 0 50 58-19-22-48-24-29 1-47 22" fill="#332522"/><path d="M811 286q10-100 61-100t74 100" fill="#183d62"/></g><circle cx="1020" cy="255" r="24" fill="#18bd84"/><path d="M1009 255l8 8 15-20" fill="none" stroke="#fff" stroke-width="7" stroke-linecap="round"/><rect x="770" y="338" width="300" height="132" rx="24" fill="#edf8f6"/><path d="M815 380h205M815 414h160" stroke="#6f9c98" stroke-width="13" stroke-linecap="round"/><rect x="835" y="505" width="170" height="44" rx="22" fill="#0abf86"/><path d="M880 527h80" stroke="#fff" stroke-width="8" stroke-linecap="round"/><g fill="#fff" opacity=".84"><circle cx="105" cy="105" r="7"/><circle cx="130" cy="105" r="7"/><circle cx="155" cy="105" r="7"/></g></svg>